<?xml version="1.0" encoding="UTF-8" standalone="no"?>
<!DOCTYPE svg PUBLIC "-//W3C//DTD SVG 1.1//EN"
 "http://www.w3.org/Graphics/SVG/1.1/DTD/svg11.dtd">
<!-- Generated by graphviz version 2.40.1 (20161225.0304)
 -->
<!-- Title: compactRelationshipsDiagram Pages: 1 -->
<svg width="644pt" height="364pt"
 viewBox="0.00 0.00 644.00 364.20" xmlns="http://www.w3.org/2000/svg" xmlns:xlink="http://www.w3.org/1999/xlink">
<g id="graph0" class="graph" transform="scale(1 1) rotate(0) translate(4 360.2)">
<title>compactRelationshipsDiagram</title>
<polygon fill="#ffffff" stroke="transparent" points="-4,4 -4,-360.2 640,-360.2 640,4 -4,4"/>
<text text-anchor="middle" x="72.4936" y="-7.3" font-family="Helvetica,sans-Serif" font-size="11.00" fill="#000000">Generated by SchemaSpy</text>
<!-- LanguageTable -->
<g id="node1" class="node">
<title>LanguageTable</title>
<g id="a_node1"><a xlink:href="../../tables/LanguageTable.html" xlink:title="LanguageTable" target="_top">
<polygon fill="#ffffff" stroke="transparent" points="222.5,-268.2 222.5,-351.2 367.5,-351.2 367.5,-268.2 222.5,-268.2"/>
<polygon fill="#f5f5f5" stroke="transparent" points="223,-327.7 223,-350.7 368,-350.7 368,-327.7 223,-327.7"/>
<polygon fill="none" stroke="#000000" points="223,-327.7 223,-350.7 368,-350.7 368,-327.7 223,-327.7"/>
<text text-anchor="start" x="228" y="-336.8" font-family="Helvetica,sans-Serif" font-weight="bold" font-size="11.00" fill="#000000">LanguageTable</text>
<text text-anchor="start" x="333.0437" y="-335.8" font-family="Helvetica,sans-Serif" font-size="11.00" fill="#000000">[table]</text>
<polygon fill="none" stroke="#000000" points="223,-305.7 223,-327.7 368,-327.7 368,-305.7 223,-305.7"/>
<image xlink:href="../../images/primaryKeys.png" width="11px" height="12px" preserveAspectRatio="xMinYMin meet" x="228" y="-322.7"/>
<text text-anchor="start" x="243" y="-312.8" font-family="Helvetica,sans-Serif" font-size="11.00" fill="#000000">cldf_id</text>
<polygon fill="none" stroke="#000000" points="223,-286.7 223,-305.7 368,-305.7 368,-286.7 223,-286.7"/>
<text text-anchor="start" x="226" y="-292.8" font-family="Helvetica,sans-Serif" font-size="11.00" fill="#000000">...</text>
<polygon fill="#ffffff" stroke="transparent" points="223,-267.7 223,-286.7 258,-286.7 258,-267.7 223,-267.7"/>
<polygon fill="none" stroke="#000000" points="223,-267.7 223,-286.7 258,-286.7 258,-267.7 223,-267.7"/>
<text text-anchor="start" x="226" y="-273.8" font-family="Helvetica,sans-Serif" font-size="11.00" fill="#000000"> &#160;</text>
<polygon fill="#ffffff" stroke="transparent" points="258,-267.7 258,-286.7 335,-286.7 335,-267.7 258,-267.7"/>
<polygon fill="none" stroke="#000000" points="258,-267.7 258,-286.7 335,-286.7 335,-267.7 258,-267.7"/>
<text text-anchor="start" x="272.094" y="-273.8" font-family="Helvetica,sans-Serif" font-size="11.00" fill="#000000">34,113 rows</text>
<polygon fill="#ffffff" stroke="transparent" points="335,-267.7 335,-286.7 368,-286.7 368,-267.7 335,-267.7"/>
<polygon fill="none" stroke="#000000" points="335,-267.7 335,-286.7 368,-286.7 368,-267.7 335,-267.7"/>
<text text-anchor="start" x="349.4053" y="-273.8" font-family="Helvetica,sans-Serif" font-size="11.00" fill="#000000">1 &gt;</text>
</a>
</g>
</g>
<!-- MediaTable -->
<g id="node2" class="node">
<title>MediaTable</title>
<g id="a_node2"><a xlink:href="../../tables/MediaTable.html" xlink:title="MediaTable" target="_top">
<polygon fill="#ffffff" stroke="transparent" points="8,-142.2 8,-225.2 145,-225.2 145,-142.2 8,-142.2"/>
<polygon fill="#f5f5f5" stroke="transparent" points="8.5,-201.7 8.5,-224.7 145.5,-224.7 145.5,-201.7 8.5,-201.7"/>
<polygon fill="none" stroke="#000000" points="8.5,-201.7 8.5,-224.7 145.5,-224.7 145.5,-201.7 8.5,-201.7"/>
<text text-anchor="start" x="13.5" y="-210.8" font-family="Helvetica,sans-Serif" font-weight="bold" font-size="11.00" fill="#000000">MediaTable</text>
<text text-anchor="start" x="110.5437" y="-209.8" font-family="Helvetica,sans-Serif" font-size="11.00" fill="#000000">[table]</text>
<polygon fill="none" stroke="#000000" points="8.5,-179.7 8.5,-201.7 145.5,-201.7 145.5,-179.7 8.5,-179.7"/>
<image xlink:href="../../images/primaryKeys.png" width="11px" height="12px" preserveAspectRatio="xMinYMin meet" x="13.5" y="-196.7"/>
<text text-anchor="start" x="28.5" y="-186.8" font-family="Helvetica,sans-Serif" font-size="11.00" fill="#000000">cldf_id</text>
<polygon fill="none" stroke="#000000" points="8.5,-160.7 8.5,-179.7 145.5,-179.7 145.5,-160.7 8.5,-160.7"/>
<text text-anchor="start" x="11.5" y="-166.8" font-family="Helvetica,sans-Serif" font-size="11.00" fill="#000000">...</text>
<polygon fill="#ffffff" stroke="transparent" points="8.5,-141.7 8.5,-160.7 56.5,-160.7 56.5,-141.7 8.5,-141.7"/>
<polygon fill="none" stroke="#000000" points="8.5,-141.7 8.5,-160.7 56.5,-160.7 56.5,-141.7 8.5,-141.7"/>
<text text-anchor="start" x="11.5" y="-147.8" font-family="Helvetica,sans-Serif" font-size="11.00" fill="#000000"> &#160;</text>
<polygon fill="#ffffff" stroke="transparent" points="56.5,-141.7 56.5,-160.7 106.5,-160.7 106.5,-141.7 56.5,-141.7"/>
<polygon fill="none" stroke="#000000" points="56.5,-141.7 56.5,-160.7 106.5,-160.7 106.5,-141.7 56.5,-141.7"/>
<text text-anchor="start" x="76.6105" y="-147.8" font-family="Helvetica,sans-Serif" font-size="11.00" fill="#000000">1 row</text>
<polygon fill="#ffffff" stroke="transparent" points="106.5,-141.7 106.5,-160.7 145.5,-160.7 145.5,-141.7 106.5,-141.7"/>
<polygon fill="none" stroke="#000000" points="106.5,-141.7 106.5,-160.7 145.5,-160.7 145.5,-141.7 106.5,-141.7"/>
<text text-anchor="start" x="126.9053" y="-147.8" font-family="Helvetica,sans-Serif" font-size="11.00" fill="#000000">1 &gt;</text>
</a>
</g>
</g>
<!-- nodes.csv -->
<g id="node3" class="node">
<title>nodes.csv</title>
<g id="a_node3"><a xlink:href="../../tables/nodes.csv.html" xlink:title="nodes.csv" target="_top">
<polygon fill="#ffffff" stroke="transparent" points="445,-225.2 445,-352.2 628,-352.2 628,-225.2 445,-225.2"/>
<polygon fill="#f5f5f5" stroke="transparent" points="445.5,-328.7 445.5,-351.7 628.5,-351.7 628.5,-328.7 445.5,-328.7"/>
<polygon fill="none" stroke="#000000" points="445.5,-328.7 445.5,-351.7 628.5,-351.7 628.5,-328.7 445.5,-328.7"/>
<text text-anchor="start" x="450.5" y="-337.8" font-family="Helvetica,sans-Serif" font-weight="bold" font-size="11.00" fill="#000000">nodes.csv</text>
<text text-anchor="start" x="593.5437" y="-336.8" font-family="Helvetica,sans-Serif" font-size="11.00" fill="#000000">[table]</text>
<polygon fill="none" stroke="#000000" points="445.5,-306.7 445.5,-328.7 628.5,-328.7 628.5,-306.7 445.5,-306.7"/>
<image xlink:href="../../images/primaryKeys.png" width="11px" height="12px" preserveAspectRatio="xMinYMin meet" x="450.5" y="-323.7"/>
<text text-anchor="start" x="465.5" y="-313.8" font-family="Helvetica,sans-Serif" font-size="11.00" fill="#000000">cldf_id</text>
<polygon fill="none" stroke="#000000" points="445.5,-284.7 445.5,-306.7 628.5,-306.7 628.5,-284.7 445.5,-284.7"/>
<image xlink:href="../../images/foreignKeys.png" width="11px" height="12px" preserveAspectRatio="xMinYMin meet" x="450.5" y="-301.7"/>
<text text-anchor="start" x="465.5" y="-291.8" font-family="Helvetica,sans-Serif" font-size="11.00" fill="#000000">cldf_languageReference</text>
<polygon fill="none" stroke="#000000" points="445.5,-262.7 445.5,-284.7 628.5,-284.7 628.5,-262.7 445.5,-262.7"/>
<image xlink:href="../../images/foreignKeys.png" width="11px" height="12px" preserveAspectRatio="xMinYMin meet" x="450.5" y="-279.7"/>
<text text-anchor="start" x="465.5" y="-269.8" font-family="Helvetica,sans-Serif" font-size="11.00" fill="#000000">Tree_ID</text>
<polygon fill="none" stroke="#000000" points="445.5,-243.7 445.5,-262.7 628.5,-262.7 628.5,-243.7 445.5,-243.7"/>
<text text-anchor="start" x="448.5" y="-249.8" font-family="Helvetica,sans-Serif" font-size="11.00" fill="#000000">...</text>
<polygon fill="#ffffff" stroke="transparent" points="445.5,-224.7 445.5,-243.7 505.5,-243.7 505.5,-224.7 445.5,-224.7"/>
<polygon fill="none" stroke="#000000" points="445.5,-224.7 445.5,-243.7 505.5,-243.7 505.5,-224.7 445.5,-224.7"/>
<text text-anchor="start" x="448.5" y="-230.8" font-family="Helvetica,sans-Serif" font-size="11.00" fill="#000000">&lt; 2</text>
<polygon fill="#ffffff" stroke="transparent" points="505.5,-224.7 505.5,-243.7 596.5,-243.7 596.5,-224.7 505.5,-224.7"/>
<polygon fill="none" stroke="#000000" points="505.5,-224.7 505.5,-243.7 596.5,-243.7 596.5,-224.7 505.5,-224.7"/>
<text text-anchor="start" x="527.4791" y="-230.8" font-family="Helvetica,sans-Serif" font-size="11.00" fill="#000000">102,511 rows</text>
<polygon fill="#ffffff" stroke="transparent" points="596.5,-224.7 596.5,-243.7 628.5,-243.7 628.5,-224.7 596.5,-224.7"/>
<polygon fill="none" stroke="#000000" points="596.5,-224.7 596.5,-243.7 628.5,-243.7 628.5,-224.7 596.5,-224.7"/>
<text text-anchor="start" x="619.3862" y="-230.8" font-family="Helvetica,sans-Serif" font-size="11.00" fill="#000000"> &#160;</text>
</a>
</g>
</g>
<!-- nodes.csv&#45;&gt;LanguageTable -->
<g id="edge1" class="edge">
<title>nodes.csv:w&#45;&gt;LanguageTable:e</title>
<path fill="none" stroke="#000000" d="M431.0392,-297.0136C407.2606,-301.6111 398.2499,-316.7 368,-316.7"/>
<polygon fill="#000000" stroke="#000000" points="437.5328,-296.4238 445.8257,-299.2852 441.5164,-296.0619 445.5,-295.7 445.5,-295.7 445.5,-295.7 441.5164,-296.0619 445.1743,-292.1148 437.5328,-296.4238 437.5328,-296.4238"/>
<ellipse fill="none" stroke="#000000" cx="434.3459" cy="-296.7133" rx="3.2" ry="3.2"/>
</g>
<!-- TreeTable -->
<g id="node5" class="node">
<title>TreeTable</title>
<g id="a_node5"><a xlink:href="../../tables/TreeTable.html" xlink:title="TreeTable" target="_top">
<polygon fill="#ffffff" stroke="transparent" points="194,-142.2 194,-247.2 396,-247.2 396,-142.2 194,-142.2"/>
<polygon fill="#f5f5f5" stroke="transparent" points="194,-223.7 194,-246.7 396,-246.7 396,-223.7 194,-223.7"/>
<polygon fill="none" stroke="#000000" points="194,-223.7 194,-246.7 396,-246.7 396,-223.7 194,-223.7"/>
<text text-anchor="start" x="199" y="-232.8" font-family="Helvetica,sans-Serif" font-weight="bold" font-size="11.00" fill="#000000">TreeTable</text>
<text text-anchor="start" x="361.0437" y="-231.8" font-family="Helvetica,sans-Serif" font-size="11.00" fill="#000000">[table]</text>
<polygon fill="none" stroke="#000000" points="194,-201.7 194,-223.7 396,-223.7 396,-201.7 194,-201.7"/>
<image xlink:href="../../images/primaryKeys.png" width="11px" height="12px" preserveAspectRatio="xMinYMin meet" x="199" y="-218.7"/>
<text text-anchor="start" x="214" y="-208.8" font-family="Helvetica,sans-Serif" font-size="11.00" fill="#000000">cldf_id</text>
<polygon fill="none" stroke="#000000" points="194,-179.7 194,-201.7 396,-201.7 396,-179.7 194,-179.7"/>
<image xlink:href="../../images/foreignKeys.png" width="11px" height="12px" preserveAspectRatio="xMinYMin meet" x="199" y="-196.7"/>
<text text-anchor="start" x="214" y="-186.8" font-family="Helvetica,sans-Serif" font-size="11.00" fill="#000000">cldf_mediaReference</text>
<polygon fill="none" stroke="#000000" points="194,-160.7 194,-179.7 396,-179.7 396,-160.7 194,-160.7"/>
<text text-anchor="start" x="197" y="-166.8" font-family="Helvetica,sans-Serif" font-size="11.00" fill="#000000">...</text>
<polygon fill="#ffffff" stroke="transparent" points="194,-141.7 194,-160.7 265,-160.7 265,-141.7 194,-141.7"/>
<polygon fill="none" stroke="#000000" points="194,-141.7 194,-160.7 265,-160.7 265,-141.7 194,-141.7"/>
<text text-anchor="start" x="197" y="-147.8" font-family="Helvetica,sans-Serif" font-size="11.00" fill="#000000">&lt; 1</text>
<polygon fill="#ffffff" stroke="transparent" points="265,-141.7 265,-160.7 349,-160.7 349,-141.7 265,-141.7"/>
<polygon fill="none" stroke="#000000" points="265,-141.7 265,-160.7 349,-160.7 349,-141.7 265,-141.7"/>
<text text-anchor="start" x="292.2089" y="-147.8" font-family="Helvetica,sans-Serif" font-size="11.00" fill="#000000">1,485 rows</text>
<polygon fill="#ffffff" stroke="transparent" points="349,-141.7 349,-160.7 396,-160.7 396,-141.7 349,-141.7"/>
<polygon fill="none" stroke="#000000" points="349,-141.7 349,-160.7 396,-160.7 396,-141.7 349,-141.7"/>
<text text-anchor="start" x="377.4053" y="-147.8" font-family="Helvetica,sans-Serif" font-size="11.00" fill="#000000">2 &gt;</text>
</a>
</g>
</g>
<!-- nodes.csv&#45;&gt;TreeTable -->
<g id="edge2" class="edge">
<title>nodes.csv:w&#45;&gt;TreeTable:e</title>
<path fill="none" stroke="#000000" d="M431.8321,-268.9134C415.9417,-254.5333 424.9135,-212.7 396,-212.7"/>
<polygon fill="#000000" stroke="#000000" points="437.9496,-271.0558 444.3101,-277.0977 441.7248,-272.3779 445.5,-273.7 445.5,-273.7 445.5,-273.7 441.7248,-272.3779 446.6899,-270.3023 437.9496,-271.0558 437.9496,-271.0558"/>
<ellipse fill="none" stroke="#000000" cx="434.9295" cy="-269.9981" rx="3.2" ry="3.2"/>
</g>
<!-- SourceTable -->
<g id="node4" class="node">
<title>SourceTable</title>
<g id="a_node4"><a xlink:href="../../tables/SourceTable.html" xlink:title="SourceTable" target="_top">
<polygon fill="#ffffff" stroke="transparent" points="237.5,-38.2 237.5,-121.2 352.5,-121.2 352.5,-38.2 237.5,-38.2"/>
<polygon fill="#f5f5f5" stroke="transparent" points="238,-97.7 238,-120.7 353,-120.7 353,-97.7 238,-97.7"/>
<polygon fill="none" stroke="#000000" points="238,-97.7 238,-120.7 353,-120.7 353,-97.7 238,-97.7"/>
<text text-anchor="start" x="243" y="-106.8" font-family="Helvetica,sans-Serif" font-weight="bold" font-size="11.00" fill="#000000">SourceTable</text>
<text text-anchor="start" x="318.0437" y="-105.8" font-family="Helvetica,sans-Serif" font-size="11.00" fill="#000000">[table]</text>
<polygon fill="none" stroke="#000000" points="238,-75.7 238,-97.7 353,-97.7 353,-75.7 238,-75.7"/>
<image xlink:href="../../images/primaryKeys.png" width="11px" height="12px" preserveAspectRatio="xMinYMin meet" x="243" y="-92.7"/>
<text text-anchor="start" x="258" y="-82.8" font-family="Helvetica,sans-Serif" font-size="11.00" fill="#000000">id</text>
<polygon fill="none" stroke="#000000" points="238,-56.7 238,-75.7 353,-75.7 353,-56.7 238,-56.7"/>
<text text-anchor="start" x="241" y="-62.8" font-family="Helvetica,sans-Serif" font-size="11.00" fill="#000000">...</text>
<polygon fill="#ffffff" stroke="transparent" points="238,-37.7 238,-56.7 269,-56.7 269,-37.7 238,-37.7"/>
<polygon fill="none" stroke="#000000" points="238,-37.7 238,-56.7 269,-56.7 269,-37.7 238,-37.7"/>
<text text-anchor="start" x="241" y="-43.8" font-family="Helvetica,sans-Serif" font-size="11.00" fill="#000000"> &#160;</text>
<polygon fill="#ffffff" stroke="transparent" points="269,-37.7 269,-56.7 322,-56.7 322,-37.7 269,-37.7"/>
<polygon fill="none" stroke="#000000" points="269,-37.7 269,-56.7 322,-56.7 322,-37.7 269,-37.7"/>
<text text-anchor="start" x="280.4956" y="-43.8" font-family="Helvetica,sans-Serif" font-size="11.00" fill="#000000">24 rows</text>
<polygon fill="#ffffff" stroke="transparent" points="322,-37.7 322,-56.7 353,-56.7 353,-37.7 322,-37.7"/>
<polygon fill="none" stroke="#000000" points="322,-37.7 322,-56.7 353,-56.7 353,-37.7 322,-37.7"/>
<text text-anchor="start" x="334.4053" y="-43.8" font-family="Helvetica,sans-Serif" font-size="11.00" fill="#000000">1 &gt;</text>
</a>
</g>
</g>
<!-- TreeTable&#45;&gt;MediaTable -->
<g id="edge3" class="edge">
<title>TreeTable:w&#45;&gt;MediaTable:e</title>
<path fill="none" stroke="#000000" d="M179.2829,-190.7C168.2886,-190.7 161.1615,-190.7 145.5,-190.7"/>
<polygon fill="#000000" stroke="#000000" points="186,-190.7001 194,-194.3 190,-190.7 194,-190.7 194,-190.7 194,-190.7 190,-190.7 194,-187.1 186,-190.7001 186,-190.7001"/>
<ellipse fill="none" stroke="#000000" cx="182.8" cy="-190.7001" rx="3.2" ry="3.2"/>
</g>
<!-- TreeTable_SourceTable -->
<g id="node6" class="node">
<title>TreeTable_SourceTable</title>
<g id="a_node6"><a xlink:href="../../tables/TreeTable_SourceTable.html" xlink:title="TreeTable_SourceTable" target="_top">
<polygon fill="#ffffff" stroke="transparent" points="447.5,-79.2 447.5,-184.2 625.5,-184.2 625.5,-79.2 447.5,-79.2"/>
<polygon fill="#f5f5f5" stroke="transparent" points="447.5,-160.7 447.5,-183.7 625.5,-183.7 625.5,-160.7 447.5,-160.7"/>
<polygon fill="none" stroke="#000000" points="447.5,-160.7 447.5,-183.7 625.5,-183.7 625.5,-160.7 447.5,-160.7"/>
<text text-anchor="start" x="452.5" y="-169.8" font-family="Helvetica,sans-Serif" font-weight="bold" font-size="11.00" fill="#000000">TreeTable_SourceTable</text>
<text text-anchor="start" x="590.5437" y="-168.8" font-family="Helvetica,sans-Serif" font-size="11.00" fill="#000000">[table]</text>
<polygon fill="none" stroke="#000000" points="447.5,-138.7 447.5,-160.7 625.5,-160.7 625.5,-138.7 447.5,-138.7"/>
<image xlink:href="../../images/foreignKeys.png" width="11px" height="12px" preserveAspectRatio="xMinYMin meet" x="452.5" y="-155.7"/>
<text text-anchor="start" x="467.5" y="-145.8" font-family="Helvetica,sans-Serif" font-size="11.00" fill="#000000">TreeTable_cldf_id</text>
<polygon fill="none" stroke="#000000" points="447.5,-116.7 447.5,-138.7 625.5,-138.7 625.5,-116.7 447.5,-116.7"/>
<image xlink:href="../../images/foreignKeys.png" width="11px" height="12px" preserveAspectRatio="xMinYMin meet" x="452.5" y="-133.7"/>
<text text-anchor="start" x="467.5" y="-123.8" font-family="Helvetica,sans-Serif" font-size="11.00" fill="#000000">SourceTable_id</text>
<polygon fill="none" stroke="#000000" points="447.5,-97.7 447.5,-116.7 625.5,-116.7 625.5,-97.7 447.5,-97.7"/>
<text text-anchor="start" x="450.5" y="-103.8" font-family="Helvetica,sans-Serif" font-size="11.00" fill="#000000">...</text>
<polygon fill="#ffffff" stroke="transparent" points="447.5,-78.7 447.5,-97.7 515.5,-97.7 515.5,-78.7 447.5,-78.7"/>
<polygon fill="none" stroke="#000000" points="447.5,-78.7 447.5,-97.7 515.5,-97.7 515.5,-78.7 447.5,-78.7"/>
<text text-anchor="start" x="450.5" y="-84.8" font-family="Helvetica,sans-Serif" font-size="11.00" fill="#000000">&lt; 2</text>
<polygon fill="#ffffff" stroke="transparent" points="515.5,-78.7 515.5,-97.7 589.5,-97.7 589.5,-78.7 515.5,-78.7"/>
<polygon fill="none" stroke="#000000" points="515.5,-78.7 515.5,-97.7 589.5,-97.7 589.5,-78.7 515.5,-78.7"/>
<text text-anchor="start" x="541.8807" y="-84.8" font-family="Helvetica,sans-Serif" font-size="11.00" fill="#000000">807 rows</text>
<polygon fill="#ffffff" stroke="transparent" points="589.5,-78.7 589.5,-97.7 625.5,-97.7 625.5,-78.7 589.5,-78.7"/>
<polygon fill="none" stroke="#000000" points="589.5,-78.7 589.5,-97.7 625.5,-97.7 625.5,-78.7 589.5,-78.7"/>
<text text-anchor="start" x="616.3862" y="-84.8" font-family="Helvetica,sans-Serif" font-size="11.00" fill="#000000"> &#160;</text>
</a>
</g>
</g>
<!-- TreeTable_SourceTable&#45;&gt;SourceTable -->
<g id="edge4" class="edge">
<title>TreeTable_SourceTable:w&#45;&gt;SourceTable:e</title>
<path fill="none" stroke="#000000" d="M433.0319,-126.1428C400.4411,-118.6537 393.4175,-86.7 353,-86.7"/>
<polygon fill="#000000" stroke="#000000" points="439.5459,-126.8439 447.1147,-131.2793 443.523,-127.2719 447.5,-127.7 447.5,-127.7 447.5,-127.7 443.523,-127.2719 447.8853,-124.1207 439.5459,-126.8439 439.5459,-126.8439"/>
<ellipse fill="none" stroke="#000000" cx="436.3643" cy="-126.5014" rx="3.2" ry="3.2"/>
</g>
<!-- TreeTable_SourceTable&#45;&gt;TreeTable -->
<g id="edge5" class="edge">
<title>TreeTable_SourceTable:w&#45;&gt;TreeTable:e</title>
<path fill="none" stroke="#000000" d="M433.799,-154.2308C416.6358,-168.6761 426.2316,-212.7 396,-212.7"/>
<polygon fill="#000000" stroke="#000000" points="439.9045,-152.2118 448.6303,-153.118 443.7023,-150.9559 447.5,-149.7 447.5,-149.7 447.5,-149.7 443.7023,-150.9559 446.3697,-146.282 439.9045,-152.2118 439.9045,-152.2118"/>
<ellipse fill="none" stroke="#000000" cx="436.8663" cy="-153.2165" rx="3.2" ry="3.2"/>
</g>
</g>
</svg>

